<svg width="71" height="66" viewBox="0 0 71 66" fill="none" xmlns="http://www.w3.org/2000/svg">
<path d="M35.5003 5.5C39.3853 5.5 43.2322 6.21131 46.8214 7.59331C50.4106 8.97532 53.6718 11.001 56.4189 13.5546C59.166 16.1082 61.3451 19.1398 62.8318 22.4762C64.3185 25.8127 65.0837 29.3886 65.0837 33C65.0837 40.2935 61.9669 47.2882 56.4189 52.4454C50.8709 57.6027 43.3463 60.5 35.5003 60.5C31.6154 60.5 27.7685 59.7887 24.1793 58.4067C20.5901 57.0247 17.3288 54.999 14.5817 52.4454C9.0338 47.2882 5.91699 40.2935 5.91699 33C5.91699 25.7065 9.0338 18.7118 14.5817 13.5546C20.1297 8.39731 27.6543 5.5 35.5003 5.5ZM35.5003 11C29.2235 11 23.2038 13.3179 18.7655 17.4437C14.3271 21.5695 11.8337 27.1652 11.8337 33C11.8337 38.8348 14.3271 44.4305 18.7655 48.5564C23.2038 52.6822 29.2235 55 35.5003 55C41.7771 55 47.7968 52.6822 52.2352 48.5564C56.6735 44.4305 59.167 38.8348 59.167 33C59.167 27.1652 56.6735 21.5695 52.2352 17.4437C47.7968 13.3179 41.7771 11 35.5003 11ZM47.3337 27.5V46.75C47.3337 47.4793 47.022 48.1788 46.4672 48.6945C45.9124 49.2103 45.1599 49.5 44.3753 49.5H26.6253C25.8407 49.5 25.0883 49.2103 24.5335 48.6945C23.9787 48.1788 23.667 47.4793 23.667 46.75V27.5H47.3337ZM39.9378 16.5L42.8962 19.25H50.292V24.75H20.7087V19.25H28.1045L31.0628 16.5H39.9378Z" fill="white"/>
</svg>
