<svg width="180" height="161" viewBox="0 0 180 161" fill="none" xmlns="http://www.w3.org/2000/svg">
<g opacity="0.2">
<path fill-rule="evenodd" clip-rule="evenodd" d="M47.25 5.05005C47.7326 5.0492 48.2027 5.22251 48.5908 5.54442C48.979 5.86632 49.2646 6.31975 49.4055 6.83775L58.0815 38.8194L84.024 49.4598C84.4518 49.6356 84.8219 49.9531 85.0854 50.3702C85.349 50.7873 85.4934 51.2843 85.4998 51.7955C85.5061 52.3067 85.374 52.8081 85.1209 53.2332C84.8679 53.6584 84.5058 53.9873 84.0825 54.1764L58.311 65.6652L49.4055 99.1972C49.2667 99.7177 48.982 100.174 48.5936 100.498C48.2053 100.823 47.7341 100.998 47.25 100.998C46.7659 100.998 46.2947 100.823 45.9064 100.498C45.518 100.174 45.2333 99.7177 45.0945 99.1972L36.189 65.6652L10.4175 54.1764C9.99424 53.9873 9.63212 53.6584 9.37905 53.2332C9.12598 52.8081 8.99388 52.3067 9.00022 51.7955C9.00656 51.2843 9.15104 50.7873 9.41456 50.3702C9.67808 49.9531 10.0482 49.6356 10.476 49.4598L36.4185 38.8194L45.099 6.83775C45.2397 6.32057 45.5246 5.86774 45.9119 5.54592C46.2991 5.2241 46.7681 5.05028 47.25 5.05005Z" fill="black"/>
<path d="M77.985 100.748C77.49 100.748 77.085 100.344 77.04 99.8386C76.14 89.7386 75.465 86.5066 67.005 85.6481C66.7695 85.6251 66.5504 85.503 66.3918 85.3063C66.2332 85.1096 66.1468 84.8528 66.15 84.5876C66.15 84.0321 66.51 83.5776 67.005 83.5271C75.555 82.6181 76.14 79.9921 77.04 70.1446C77.085 69.5891 77.49 69.1851 77.985 69.1851C78.48 69.1851 78.885 69.5891 78.93 70.0941C79.83 79.9921 80.415 82.6181 88.965 83.4766C89.46 83.5271 89.82 83.9816 89.82 84.5371C89.82 85.0926 89.46 85.5471 88.965 85.5976C80.55 86.5066 79.83 89.7386 78.975 99.7881C78.93 100.344 78.525 100.748 78.03 100.748H77.985Z" fill="black"/>
</g>
<path fill-rule="evenodd" clip-rule="evenodd" d="M40.5 2.52503C40.9826 2.52417 41.4527 2.69749 41.8408 3.01939C42.229 3.34129 42.5146 3.79472 42.6555 4.31273L51.3315 36.2944L77.274 46.9347C77.7018 47.1106 78.0719 47.4281 78.3354 47.8452C78.599 48.2622 78.7434 48.7593 78.7498 49.2705C78.7561 49.7817 78.624 50.2831 78.3709 50.7082C78.1179 51.1333 77.7558 51.4622 77.3325 51.6514L51.561 63.1402L42.6555 96.6722C42.5167 97.1926 42.232 97.649 41.8436 97.9734C41.4553 98.2979 40.9841 98.4731 40.5 98.4731C40.0159 98.4731 39.5447 98.2979 39.1564 97.9734C38.768 97.649 38.4833 97.1926 38.3445 96.6722L29.439 63.1402L3.6675 51.6514C3.24424 51.4622 2.88212 51.1333 2.62905 50.7082C2.37598 50.2831 2.24388 49.7817 2.25022 49.2705C2.25656 48.7593 2.40104 48.2622 2.66456 47.8452C2.92808 47.4281 3.29821 47.1106 3.726 46.9347L29.6685 36.2944L38.349 4.31273C38.4897 3.79555 38.7746 3.34272 39.1619 3.02089C39.5491 2.69907 40.0181 2.52525 40.5 2.52503ZM40.5 13.7158L33.6465 38.9658C33.5449 39.34 33.3672 39.6826 33.1275 39.9665C32.8877 40.2505 32.5925 40.468 32.265 40.602L10.8135 49.4092L32.1165 58.9032C32.4321 59.0446 32.7151 59.2643 32.9443 59.5459C33.1734 59.8275 33.3427 60.1638 33.4395 60.5293L40.5045 87.1125L47.5605 60.5293C47.6573 60.1638 47.8266 59.8275 48.0557 59.5459C48.2849 59.2643 48.5679 59.0446 48.8835 58.9032L70.1865 49.4092L48.735 40.6121C48.4075 40.4781 48.1123 40.2606 47.8725 39.9766C47.6328 39.6927 47.4551 39.3501 47.3535 38.9759L40.5 13.7158Z" fill="black"/>
<path d="M75.375 96.556C74.925 96.556 74.52 96.152 74.475 95.647C73.665 86.456 73.035 83.527 65.52 82.719C65.07 82.6685 64.71 82.214 64.71 81.709C64.71 81.204 65.07 80.7495 65.52 80.699C73.215 79.891 73.665 77.669 74.475 68.478C74.475 67.973 74.925 67.569 75.375 67.569C75.825 67.569 76.23 67.973 76.275 68.478C77.085 77.669 77.58 79.891 85.23 80.699C85.68 80.7495 86.04 81.204 86.04 81.709C86.04 82.214 85.68 82.6685 85.23 82.719C77.67 83.527 77.085 86.456 76.275 95.6975C76.275 96.2025 75.87 96.6065 75.375 96.6065V96.556Z" fill="black"/>
<g opacity="0.2">
<path fill-rule="evenodd" clip-rule="evenodd" d="M137.25 65.0501C137.733 65.0492 138.203 65.2225 138.591 65.5444C138.979 65.8663 139.265 66.3197 139.405 66.8378L148.081 98.8194L174.024 109.46C174.452 109.636 174.822 109.953 175.085 110.37C175.349 110.787 175.493 111.284 175.5 111.796C175.506 112.307 175.374 112.808 175.121 113.233C174.868 113.658 174.506 113.987 174.082 114.176L148.311 125.665L139.405 159.197C139.267 159.718 138.982 160.174 138.594 160.498C138.205 160.823 137.734 160.998 137.25 160.998C136.766 160.998 136.295 160.823 135.906 160.498C135.518 160.174 135.233 159.718 135.094 159.197L126.189 125.665L100.417 114.176C99.9942 113.987 99.6321 113.658 99.379 113.233C99.126 112.808 98.9939 112.307 99.0002 111.796C99.0066 111.284 99.151 110.787 99.4146 110.37C99.6781 109.953 100.048 109.636 100.476 109.46L126.418 98.8194L135.099 66.8378C135.24 66.3206 135.525 65.8677 135.912 65.5459C136.299 65.2241 136.768 65.0503 137.25 65.0501Z" fill="black"/>
<path d="M167.985 160.748C167.49 160.748 167.085 160.344 167.04 159.839C166.14 149.739 165.465 146.507 157.005 145.648C156.769 145.625 156.55 145.503 156.392 145.306C156.233 145.11 156.147 144.853 156.15 144.588C156.15 144.032 156.51 143.578 157.005 143.527C165.555 142.618 166.14 139.992 167.04 130.145C167.085 129.589 167.49 129.185 167.985 129.185C168.48 129.185 168.885 129.589 168.93 130.094C169.83 139.992 170.415 142.618 178.965 143.477C179.46 143.527 179.82 143.982 179.82 144.537C179.82 145.093 179.46 145.547 178.965 145.598C170.55 146.507 169.83 149.739 168.975 159.788C168.93 160.344 168.525 160.748 168.03 160.748H167.985Z" fill="black"/>
</g>
<path fill-rule="evenodd" clip-rule="evenodd" d="M130.5 62.525C130.983 62.5242 131.453 62.6975 131.841 63.0194C132.229 63.3413 132.515 63.7947 132.655 64.3127L141.331 96.2944L167.274 106.935C167.702 107.111 168.072 107.428 168.335 107.845C168.599 108.262 168.743 108.759 168.75 109.27C168.756 109.782 168.624 110.283 168.371 110.708C168.118 111.133 167.756 111.462 167.332 111.651L141.561 123.14L132.655 156.672C132.517 157.193 132.232 157.649 131.844 157.973C131.455 158.298 130.984 158.473 130.5 158.473C130.016 158.473 129.545 158.298 129.156 157.973C128.768 157.649 128.483 157.193 128.344 156.672L119.439 123.14L93.6675 111.651C93.2442 111.462 92.8821 111.133 92.629 110.708C92.376 110.283 92.2439 109.782 92.2502 109.27C92.2566 108.759 92.401 108.262 92.6646 107.845C92.9281 107.428 93.2982 107.111 93.726 106.935L119.668 96.2944L128.349 64.3127C128.49 63.7955 128.775 63.3427 129.162 63.0209C129.549 62.6991 130.018 62.5253 130.5 62.525ZM130.5 73.7158L123.646 98.9658C123.545 99.34 123.367 99.6826 123.127 99.9665C122.888 100.25 122.592 100.468 122.265 100.602L100.813 109.409L122.116 118.903C122.432 119.045 122.715 119.264 122.944 119.546C123.173 119.828 123.343 120.164 123.439 120.529L130.504 147.113L137.56 120.529C137.657 120.164 137.827 119.828 138.056 119.546C138.285 119.264 138.568 119.045 138.883 118.903L160.186 109.409L138.735 100.612C138.408 100.478 138.112 100.261 137.873 99.9766C137.633 99.6927 137.455 99.3501 137.353 98.9759L130.5 73.7158Z" fill="black"/>
<path d="M165.375 156.556C164.925 156.556 164.52 156.152 164.475 155.647C163.665 146.456 163.035 143.527 155.52 142.719C155.07 142.669 154.71 142.214 154.71 141.709C154.71 141.204 155.07 140.75 155.52 140.699C163.215 139.891 163.665 137.669 164.475 128.478C164.475 127.973 164.925 127.569 165.375 127.569C165.825 127.569 166.23 127.973 166.275 128.478C167.085 137.669 167.58 139.891 175.23 140.699C175.68 140.75 176.04 141.204 176.04 141.709C176.04 142.214 175.68 142.669 175.23 142.719C167.67 143.527 167.085 146.456 166.275 155.698C166.275 156.203 165.87 156.607 165.375 156.607V156.556Z" fill="black"/>
</svg>
