<svg width="366" height="60" viewBox="0 0 366 60" fill="none" xmlns="http://www.w3.org/2000/svg">
<path d="M35.4167 33.2292C34.5879 33.2292 33.793 32.867 33.207 32.2223C32.6209 31.5777 32.2917 30.7033 32.2917 29.7917C32.2917 28.88 32.6209 28.0056 33.207 27.361C33.793 26.7163 34.5879 26.3542 35.4167 26.3542C36.2455 26.3542 37.0403 26.7163 37.6264 27.361C38.2124 28.0056 38.5417 28.88 38.5417 29.7917C38.5417 30.7033 38.2124 31.5777 37.6264 32.2223C37.0403 32.867 36.2455 33.2292 35.4167 33.2292ZM38.5417 12.6042L42.625 18.3333H33.3333V12.6042M10.4167 33.2292C9.58787 33.2292 8.79301 32.867 8.20696 32.2223C7.62091 31.5777 7.29167 30.7033 7.29167 29.7917C7.29167 28.88 7.62091 28.0056 8.20696 27.361C8.79301 26.7163 9.58787 26.3542 10.4167 26.3542C11.2455 26.3542 12.0403 26.7163 12.6264 27.361C13.2124 28.0056 13.5417 28.88 13.5417 29.7917C13.5417 30.7033 13.2124 31.5777 12.6264 32.2223C12.0403 32.867 11.2455 33.2292 10.4167 33.2292ZM39.5833 9.16667H33.3333V0H4.16667C1.85417 0 0 2.03958 0 4.58333V29.7917H4.16667C4.16667 31.615 4.82515 33.3637 5.99725 34.653C7.16935 35.9423 8.75906 36.6667 10.4167 36.6667C12.0743 36.6667 13.664 35.9423 14.8361 34.653C16.0082 33.3637 16.6667 31.615 16.6667 29.7917H29.1667C29.1667 31.615 29.8251 33.3637 30.9973 34.653C32.1694 35.9423 33.7591 36.6667 35.4167 36.6667C37.0743 36.6667 38.664 35.9423 39.8361 34.653C41.0082 33.3637 41.6667 31.615 41.6667 29.7917H45.8333V18.3333L39.5833 9.16667Z" fill="white"/>
<path d="M65.6959 28.4493H66.5279C66.8586 28.4493 67.1199 28.3906 67.3119 28.2733C67.5039 28.1453 67.6586 27.9426 67.7759 27.6653C68.2132 26.6413 68.5546 25.3773 68.7999 23.8733C69.0559 22.3693 69.1839 20.7106 69.1839 18.8973C69.1839 18.2679 68.9066 17.9533 68.3519 17.9533H67.4559V17.4413H75.9999V17.9533H74.8799C74.7412 17.9533 74.6399 17.9799 74.5759 18.0333C74.5226 18.0866 74.4959 18.1879 74.4959 18.3373V27.6813C74.4959 27.9693 74.5599 28.1719 74.6879 28.2893C74.8266 28.3959 75.0452 28.4493 75.3439 28.4493H76.4159V32.0333H75.9039C75.8932 31.9693 75.8666 31.8146 75.8239 31.5693C75.7812 31.3346 75.7066 31.0573 75.5999 30.7373C75.4932 30.4279 75.3492 30.1453 75.1679 29.8893C74.6559 29.1853 74.0426 28.8333 73.3279 28.8333H68.7839C68.0692 28.8333 67.4559 29.1853 66.9439 29.8893C66.7626 30.1453 66.6186 30.4279 66.5119 30.7373C66.4052 31.0573 66.3306 31.3346 66.2879 31.5693C66.2452 31.8146 66.2186 31.9693 66.2079 32.0333H65.6959V28.4493ZM71.7439 28.3213C71.8932 28.3213 71.9946 28.2946 72.0479 28.2413C72.1012 28.1773 72.1279 28.0759 72.1279 27.9373V18.3373C72.1279 18.1879 72.1012 18.0866 72.0479 18.0333C71.9946 17.9799 71.8932 17.9533 71.7439 17.9533H71.0559C70.6399 17.9533 70.3306 18.0653 70.1279 18.2893C69.9252 18.5133 69.8239 18.8973 69.8239 19.4413C69.8239 20.7639 69.7226 22.1239 69.5199 23.5213C69.3172 24.9186 69.1146 25.9639 68.9119 26.6573C68.7519 27.2439 68.6719 27.6066 68.6719 27.7453C68.6719 27.9479 68.7199 28.0973 68.8159 28.1933C68.9226 28.2786 69.0986 28.3213 69.3439 28.3213H71.7439ZM80.9636 29.0253C80.3876 29.0253 79.849 28.8546 79.3476 28.5133C78.8463 28.1613 78.4463 27.6813 78.1476 27.0733C77.849 26.4653 77.6996 25.7879 77.6996 25.0413C77.6996 24.2946 77.849 23.6173 78.1476 23.0093C78.4463 22.4013 78.8463 21.9266 79.3476 21.5853C79.849 21.2333 80.3876 21.0573 80.9636 21.0573C81.5396 21.0573 82.0783 21.2333 82.5796 21.5853C83.081 21.9266 83.481 22.4013 83.7796 23.0093C84.0783 23.6173 84.2276 24.2946 84.2276 25.0413C84.2276 25.7879 84.0783 26.4653 83.7796 27.0733C83.481 27.6813 83.081 28.1613 82.5796 28.5133C82.0783 28.8546 81.5396 29.0253 80.9636 29.0253ZM80.9636 28.6413C81.4223 28.6413 81.737 28.3586 81.9076 27.7933C82.089 27.2279 82.1796 26.3106 82.1796 25.0413C82.1796 23.7719 82.089 22.8546 81.9076 22.2893C81.737 21.7239 81.4223 21.4413 80.9636 21.4413C80.505 21.4413 80.185 21.7239 80.0036 22.2893C79.833 22.8546 79.7476 23.7719 79.7476 25.0413C79.7476 26.3106 79.833 27.2279 80.0036 27.7933C80.185 28.3586 80.505 28.6413 80.9636 28.6413ZM89.1701 29.0253C88.5088 29.0253 87.9168 28.8493 87.3941 28.4973C86.8821 28.1346 86.4821 27.6493 86.1941 27.0413C85.9061 26.4333 85.7621 25.7666 85.7621 25.0413C85.7621 24.3159 85.9008 23.6493 86.1781 23.0413C86.4661 22.4333 86.8661 21.9533 87.3781 21.6013C87.9008 21.2386 88.4875 21.0573 89.1381 21.0573C89.6501 21.0573 90.0768 21.1639 90.4181 21.3773C90.7701 21.5906 91.0315 21.8626 91.2021 22.1933C91.3728 22.5239 91.4581 22.8653 91.4581 23.2173C91.4581 23.6013 91.3408 23.9373 91.1061 24.2253C90.8715 24.5026 90.5888 24.6413 90.2581 24.6413C90.0128 24.6413 89.8101 24.5719 89.6501 24.4333C89.4901 24.2839 89.4101 24.0866 89.4101 23.8413C89.4101 23.5533 89.5808 23.2706 89.9221 22.9933C90.1781 22.7799 90.3061 22.5613 90.3061 22.3373C90.3061 22.1133 90.2208 21.9106 90.0501 21.7293C89.8901 21.5373 89.6288 21.4413 89.2661 21.4413C88.7648 21.4413 88.3968 21.7613 88.1621 22.4013C87.9275 23.0306 87.8101 23.9106 87.8101 25.0413C87.8101 25.6066 87.8208 26.0493 87.8421 26.3693C87.8635 26.6786 87.9115 26.9719 87.9861 27.2493C88.0821 27.6439 88.2635 27.9586 88.5301 28.1933C88.8075 28.4279 89.1275 28.5453 89.4901 28.5453C90.0128 28.5453 90.4341 28.3159 90.7541 27.8573C91.0741 27.3986 91.2661 26.8599 91.3301 26.2413H91.7461C91.6821 26.9773 91.4421 27.6279 91.0261 28.1933C90.6101 28.7479 89.9915 29.0253 89.1701 29.0253ZM94.2705 28.4493H95.1665C95.2625 28.4493 95.3265 28.4333 95.3585 28.4013C95.4012 28.3586 95.4225 28.2893 95.4225 28.1933V21.8893C95.4225 21.7826 95.4012 21.7133 95.3585 21.6813C95.3265 21.6493 95.2625 21.6333 95.1665 21.6333C94.9318 21.6333 94.7025 21.7666 94.4785 22.0333C94.2652 22.2893 94.0892 22.5879 93.9505 22.9293C93.8012 23.2919 93.6892 23.6119 93.6145 23.8893C93.5505 24.1666 93.5132 24.3426 93.5025 24.4173H93.0545L93.1505 21.2493H99.5505L99.6465 24.4173H99.1985C99.1878 24.3426 99.1452 24.1666 99.0705 23.8893C99.0065 23.6119 98.8998 23.2919 98.7505 22.9293C98.6118 22.5879 98.4305 22.2893 98.2065 22.0333C97.9932 21.7666 97.7692 21.6333 97.5345 21.6333C97.4385 21.6333 97.3692 21.6493 97.3265 21.6813C97.2945 21.7133 97.2785 21.7826 97.2785 21.8893V28.1933C97.2785 28.2893 97.2945 28.3586 97.3265 28.4013C97.3692 28.4333 97.4385 28.4493 97.5345 28.4493H98.4305V28.8333H94.2705V28.4493ZM103.077 29.0253C102.49 29.0253 101.989 28.8813 101.573 28.5933C101.167 28.3053 100.965 27.8199 100.965 27.1373C100.965 26.4439 101.215 25.8999 101.717 25.5053C102.229 25.0999 102.874 24.7639 103.653 24.4973L104.837 24.0813V22.9933C104.837 22.4493 104.725 22.0546 104.501 21.8093C104.277 21.5639 103.989 21.4413 103.637 21.4413C103.338 21.4413 103.077 21.5106 102.853 21.6493C102.639 21.7773 102.533 21.9586 102.533 22.1933C102.533 22.2573 102.549 22.3373 102.581 22.4333C102.623 22.5186 102.693 22.5933 102.789 22.6573C102.949 22.7533 103.061 22.8546 103.125 22.9613C103.199 23.0679 103.237 23.2066 103.237 23.3773C103.237 23.6333 103.141 23.8359 102.949 23.9853C102.767 24.1239 102.565 24.1933 102.341 24.1933C102.063 24.1933 101.823 24.1026 101.621 23.9213C101.429 23.7293 101.333 23.4573 101.333 23.1053C101.333 22.6999 101.455 22.3426 101.701 22.0333C101.946 21.7133 102.261 21.4733 102.645 21.3133C103.029 21.1426 103.418 21.0573 103.813 21.0573C104.581 21.0573 105.253 21.2653 105.829 21.6813C106.405 22.0866 106.693 22.7373 106.693 23.6333V27.6813C106.693 28.0653 106.799 28.2573 107.013 28.2573C107.205 28.2573 107.349 28.0973 107.445 27.7773C107.541 27.4573 107.589 27.0893 107.589 26.6733H108.037C108.037 27.4519 107.919 28.0226 107.685 28.3853C107.567 28.5773 107.402 28.7319 107.189 28.8493C106.975 28.9666 106.73 29.0253 106.453 29.0253C106.015 29.0253 105.685 28.9613 105.461 28.8333C105.237 28.6946 105.05 28.4706 104.901 28.1613H104.869C104.442 28.7373 103.845 29.0253 103.077 29.0253ZM103.861 28.3853C104.277 28.3853 104.602 28.1506 104.837 27.6813V24.5133L103.941 24.8333C103.589 24.9613 103.327 25.2066 103.157 25.5693C102.997 25.9213 102.917 26.3959 102.917 26.9933C102.917 27.5159 103.013 27.8786 103.205 28.0813C103.397 28.2839 103.615 28.3853 103.861 28.3853ZM108.994 28.4493H109.602C109.698 28.4493 109.762 28.4333 109.794 28.4013C109.836 28.3586 109.858 28.2893 109.858 28.1933V21.8893C109.858 21.7933 109.836 21.7293 109.794 21.6973C109.762 21.6546 109.698 21.6333 109.602 21.6333H108.994V21.2493H112.85C113.564 21.2493 114.13 21.4146 114.546 21.7453C114.972 22.0653 115.186 22.5079 115.186 23.0733C115.186 23.5533 114.999 23.9373 114.626 24.2253C114.252 24.5026 113.788 24.6786 113.234 24.7533V24.8173C113.97 24.8706 114.556 25.0733 114.994 25.4253C115.431 25.7773 115.65 26.2573 115.65 26.8653C115.65 27.4306 115.426 27.8999 114.978 28.2733C114.53 28.6466 113.98 28.8333 113.33 28.8333H108.994V28.4493ZM112.466 24.6413C112.786 24.6413 113.01 24.5079 113.138 24.2413C113.266 23.9639 113.33 23.5906 113.33 23.1213C113.33 22.6413 113.255 22.2733 113.106 22.0173C112.956 21.7613 112.743 21.6333 112.466 21.6333H111.97C111.874 21.6333 111.804 21.6546 111.762 21.6973C111.73 21.7293 111.714 21.7933 111.714 21.8893V24.6413H112.466ZM112.578 28.4493C112.908 28.4493 113.159 28.2893 113.33 27.9693C113.511 27.6386 113.602 27.2226 113.602 26.7213C113.602 26.2306 113.516 25.8359 113.346 25.5373C113.175 25.2386 112.919 25.0893 112.578 25.0893H111.714V28.1933C111.714 28.2893 111.73 28.3586 111.762 28.4013C111.804 28.4333 111.874 28.4493 111.97 28.4493H112.578ZM122.994 29.0253C122.471 29.0253 122.055 28.8919 121.746 28.6253C121.436 28.3479 121.282 27.9479 121.282 27.4253V26.1613C121.282 25.8626 121.212 25.6279 121.074 25.4573C120.935 25.2759 120.759 25.1853 120.546 25.1853H119.714V28.1933C119.714 28.2893 119.73 28.3586 119.762 28.4013C119.804 28.4333 119.874 28.4493 119.97 28.4493H120.482V28.8333H116.994V28.4493H117.602C117.698 28.4493 117.762 28.4333 117.794 28.4013C117.836 28.3586 117.858 28.2893 117.858 28.1933V21.8893C117.858 21.7933 117.836 21.7293 117.794 21.6973C117.762 21.6546 117.698 21.6333 117.602 21.6333H116.994V21.2493H120.482V21.6333H119.97C119.874 21.6333 119.804 21.6546 119.762 21.6973C119.73 21.7293 119.714 21.7933 119.714 21.8893V24.7373H120.722C120.946 24.7373 121.111 24.6519 121.218 24.4813C121.324 24.3106 121.378 24.0866 121.378 23.8093V22.7213C121.378 22.1879 121.516 21.7773 121.794 21.4893C122.082 21.2013 122.423 21.0573 122.818 21.0573C123.202 21.0573 123.506 21.1693 123.73 21.3933C123.954 21.6173 124.066 21.9159 124.066 22.2893C124.066 22.5879 123.959 22.8386 123.746 23.0413C123.543 23.2333 123.319 23.3293 123.074 23.3293C122.839 23.3293 122.642 23.2653 122.482 23.1373C122.322 22.9986 122.242 22.8119 122.242 22.5773C122.242 22.4386 122.295 22.2893 122.402 22.1293C122.487 22.0119 122.53 21.9159 122.53 21.8413C122.53 21.7453 122.476 21.6973 122.37 21.6973C122.22 21.6973 122.092 21.7826 121.986 21.9533C121.879 22.1133 121.826 22.3639 121.826 22.7053V23.8093C121.826 24.0546 121.794 24.2573 121.73 24.4173C121.666 24.5666 121.554 24.6946 121.394 24.8013V24.8813C121.948 24.9559 122.375 25.1479 122.674 25.4573C122.983 25.7666 123.138 26.2413 123.138 26.8813V27.9213C123.138 28.2093 123.255 28.3533 123.49 28.3533C123.682 28.3533 123.82 28.2093 123.906 27.9213C123.991 27.6226 124.034 27.2546 124.034 26.8173H124.45C124.45 27.5213 124.343 28.0653 124.13 28.4493C123.927 28.8333 123.548 29.0253 122.994 29.0253ZM127.623 29.0253C127.037 29.0253 126.535 28.8813 126.119 28.5933C125.714 28.3053 125.511 27.8199 125.511 27.1373C125.511 26.4439 125.762 25.8999 126.263 25.5053C126.775 25.0999 127.421 24.7639 128.199 24.4973L129.383 24.0813V22.9933C129.383 22.4493 129.271 22.0546 129.047 21.8093C128.823 21.5639 128.535 21.4413 128.183 21.4413C127.885 21.4413 127.623 21.5106 127.399 21.6493C127.186 21.7773 127.079 21.9586 127.079 22.1933C127.079 22.2573 127.095 22.3373 127.127 22.4333C127.17 22.5186 127.239 22.5933 127.335 22.6573C127.495 22.7533 127.607 22.8546 127.671 22.9613C127.746 23.0679 127.783 23.2066 127.783 23.3773C127.783 23.6333 127.687 23.8359 127.495 23.9853C127.314 24.1239 127.111 24.1933 126.887 24.1933C126.61 24.1933 126.37 24.1026 126.167 23.9213C125.975 23.7293 125.879 23.4573 125.879 23.1053C125.879 22.6999 126.002 22.3426 126.247 22.0333C126.493 21.7133 126.807 21.4733 127.191 21.3133C127.575 21.1426 127.965 21.0573 128.359 21.0573C129.127 21.0573 129.799 21.2653 130.375 21.6813C130.951 22.0866 131.239 22.7373 131.239 23.6333V27.6813C131.239 28.0653 131.346 28.2573 131.559 28.2573C131.751 28.2573 131.895 28.0973 131.991 27.7773C132.087 27.4573 132.135 27.0893 132.135 26.6733H132.583C132.583 27.4519 132.466 28.0226 132.231 28.3853C132.114 28.5773 131.949 28.7319 131.735 28.8493C131.522 28.9666 131.277 29.0253 130.999 29.0253C130.562 29.0253 130.231 28.9613 130.007 28.8333C129.783 28.6946 129.597 28.4706 129.447 28.1613H129.415C128.989 28.7373 128.391 29.0253 127.623 29.0253ZM128.407 28.3853C128.823 28.3853 129.149 28.1506 129.383 27.6813V24.5133L128.487 24.8333C128.135 24.9613 127.874 25.2066 127.703 25.5693C127.543 25.9213 127.463 26.3959 127.463 26.9933C127.463 27.5159 127.559 27.8786 127.751 28.0813C127.943 28.2839 128.162 28.3853 128.407 28.3853ZM135.14 23.5533C134.778 23.5533 134.479 23.4359 134.244 23.2013C134.01 22.9666 133.892 22.6679 133.892 22.3053C133.892 21.9426 134.01 21.6439 134.244 21.4093C134.479 21.1746 134.778 21.0573 135.14 21.0573C135.503 21.0573 135.802 21.1746 136.036 21.4093C136.271 21.6439 136.388 21.9426 136.388 22.3053C136.388 22.6679 136.271 22.9666 136.036 23.2013C135.802 23.4359 135.503 23.5533 135.14 23.5533ZM135.14 29.0253C134.778 29.0253 134.479 28.9079 134.244 28.6733C134.01 28.4386 133.892 28.1399 133.892 27.7773C133.892 27.4146 134.01 27.1159 134.244 26.8813C134.479 26.6466 134.778 26.5293 135.14 26.5293C135.503 26.5293 135.802 26.6466 136.036 26.8813C136.271 27.1159 136.388 27.4146 136.388 27.7773C136.388 28.1399 136.271 28.4386 136.036 28.6733C135.802 28.9079 135.503 29.0253 135.14 29.0253ZM146.045 29.0253C145.384 29.0253 144.792 28.8493 144.269 28.4973C143.757 28.1346 143.357 27.6493 143.069 27.0413C142.781 26.4333 142.637 25.7666 142.637 25.0413C142.637 24.3159 142.776 23.6493 143.053 23.0413C143.341 22.4333 143.741 21.9533 144.253 21.6013C144.776 21.2386 145.362 21.0573 146.013 21.0573C146.525 21.0573 146.952 21.1639 147.293 21.3773C147.645 21.5906 147.906 21.8626 148.077 22.1933C148.248 22.5239 148.333 22.8653 148.333 23.2173C148.333 23.6013 148.216 23.9373 147.981 24.2253C147.746 24.5026 147.464 24.6413 147.133 24.6413C146.888 24.6413 146.685 24.5719 146.525 24.4333C146.365 24.2839 146.285 24.0866 146.285 23.8413C146.285 23.5533 146.456 23.2706 146.797 22.9933C147.053 22.7799 147.181 22.5613 147.181 22.3373C147.181 22.1133 147.096 21.9106 146.925 21.7293C146.765 21.5373 146.504 21.4413 146.141 21.4413C145.64 21.4413 145.272 21.7613 145.037 22.4013C144.802 23.0306 144.685 23.9106 144.685 25.0413C144.685 25.6066 144.696 26.0493 144.717 26.3693C144.738 26.6786 144.786 26.9719 144.861 27.2493C144.957 27.6439 145.138 27.9586 145.405 28.1933C145.682 28.4279 146.002 28.5453 146.365 28.5453C146.888 28.5453 147.309 28.3159 147.629 27.8573C147.949 27.3986 148.141 26.8599 148.205 26.2413H148.621C148.557 26.9773 148.317 27.6279 147.901 28.1933C147.485 28.7479 146.866 29.0253 146.045 29.0253ZM155.758 28.3213H156.91C157.059 28.3213 157.161 28.2946 157.214 28.2413C157.267 28.1773 157.294 28.0759 157.294 27.9373V19.1853H155.758V18.6093H156.35C156.819 18.6093 157.251 18.5079 157.646 18.3053C158.051 18.1026 158.323 17.8146 158.462 17.4413H159.662V27.9373C159.662 28.0759 159.689 28.1773 159.742 28.2413C159.806 28.2946 159.907 28.3213 160.046 28.3213H161.198V28.8333H155.758V28.3213ZM167.247 29.0893C166.746 29.0893 166.314 28.9879 165.951 28.7853C165.588 28.5719 165.311 28.2999 165.119 27.9693C164.938 27.6386 164.847 27.2866 164.847 26.9133C164.847 26.4546 164.98 26.0653 165.247 25.7453C165.514 25.4253 165.86 25.2653 166.287 25.2653C166.607 25.2653 166.863 25.3666 167.055 25.5693C167.258 25.7613 167.359 26.0173 167.359 26.3373C167.359 26.8279 167.119 27.1586 166.639 27.3293C166.426 27.4039 166.266 27.4786 166.159 27.5533C166.052 27.6279 165.999 27.7239 165.999 27.8413C165.999 28.0546 166.111 28.2306 166.335 28.3693C166.559 28.5079 166.868 28.5773 167.263 28.5773C167.86 28.5773 168.298 28.3213 168.575 27.8093C168.863 27.2973 169.007 26.6839 169.007 25.9693V23.6813L168.911 23.6333C168.74 23.8039 168.516 23.9373 168.239 24.0333C167.962 24.1186 167.668 24.1613 167.359 24.1613C166.292 24.1613 165.492 23.8466 164.959 23.2173C164.436 22.5879 164.175 21.7826 164.175 20.8013C164.175 20.1933 164.298 19.6173 164.543 19.0733C164.799 18.5186 165.188 18.0653 165.711 17.7133C166.244 17.3613 166.906 17.1853 167.695 17.1853C168.484 17.1853 169.167 17.4413 169.743 17.9533C170.33 18.4653 170.778 19.1533 171.087 20.0173C171.407 20.8813 171.567 21.8306 171.567 22.8653C171.567 24.0919 171.391 25.1746 171.039 26.1133C170.698 27.0519 170.202 27.7826 169.551 28.3053C168.9 28.8279 168.132 29.0893 167.247 29.0893ZM167.567 23.5533C168.143 23.5533 168.538 23.3293 168.751 22.8813C168.858 22.6786 168.927 22.3959 168.959 22.0333C168.991 21.6706 169.007 21.1799 169.007 20.5613C169.007 19.5906 168.906 18.8706 168.703 18.4013C168.5 17.9319 168.17 17.6973 167.711 17.6973C167.348 17.6973 167.082 17.8253 166.911 18.0813C166.751 18.3266 166.65 18.6466 166.607 19.0413C166.564 19.4253 166.543 19.9586 166.543 20.6413C166.543 21.5053 166.612 22.2093 166.751 22.7533C166.9 23.2866 167.172 23.5533 167.567 23.5533ZM177.269 28.5133H177.813C178.058 28.5133 178.234 28.4706 178.341 28.3853C178.447 28.2893 178.538 28.1399 178.613 27.9373C178.89 27.1266 179.103 26.2306 179.253 25.2493C179.402 24.2679 179.477 23.2759 179.477 22.2733C179.477 22.1026 179.434 21.9533 179.349 21.8253C179.274 21.6973 179.157 21.6333 178.997 21.6333H178.453V21.2493H184.373V21.6333H183.605C183.509 21.6333 183.439 21.6546 183.397 21.6973C183.365 21.7293 183.349 21.7933 183.349 21.8893V27.9373C183.349 28.1293 183.386 28.2733 183.461 28.3693C183.546 28.4653 183.679 28.5133 183.861 28.5133H184.725L184.821 31.3293H184.373C184.362 31.2546 184.319 31.0786 184.245 30.8013C184.17 30.5346 184.074 30.2839 183.957 30.0493C183.786 29.6973 183.589 29.4039 183.365 29.1693C183.141 28.9453 182.842 28.8333 182.469 28.8333H179.525C179.151 28.8333 178.853 28.9453 178.629 29.1693C178.405 29.4039 178.207 29.6973 178.037 30.0493C177.919 30.2946 177.823 30.5506 177.749 30.8173C177.674 31.0839 177.631 31.2546 177.621 31.3293H177.173L177.269 28.5133ZM181.237 28.4493C181.407 28.4493 181.493 28.3533 181.493 28.1613V21.8893C181.493 21.7933 181.471 21.7293 181.429 21.6973C181.397 21.6546 181.333 21.6333 181.237 21.6333H180.901C180.538 21.6333 180.287 21.7666 180.149 22.0333C180.021 22.2999 179.946 22.6573 179.925 23.1053C179.903 23.7559 179.829 24.4813 179.701 25.2813C179.583 26.0813 179.455 26.7426 179.317 27.2653C179.21 27.6493 179.157 27.9373 179.157 28.1293C179.157 28.2253 179.194 28.3053 179.269 28.3693C179.343 28.4226 179.423 28.4493 179.509 28.4493H181.237ZM189.342 29.0253C188.681 29.0253 188.089 28.8493 187.566 28.4973C187.054 28.1346 186.654 27.6493 186.366 27.0413C186.078 26.4333 185.934 25.7666 185.934 25.0413C185.934 24.2946 186.078 23.6173 186.366 23.0093C186.654 22.4013 187.043 21.9266 187.534 21.5853C188.035 21.2333 188.579 21.0573 189.166 21.0573C189.817 21.0573 190.377 21.2919 190.846 21.7613C191.315 22.2199 191.625 22.8279 191.774 23.5853C191.849 23.9266 191.886 24.4599 191.886 25.1853H187.982C187.982 25.6973 187.993 26.1026 188.014 26.4013C188.035 26.6893 188.083 26.9719 188.158 27.2493C188.254 27.6439 188.435 27.9586 188.702 28.1933C188.979 28.4279 189.299 28.5453 189.662 28.5453C190.185 28.5453 190.606 28.3159 190.926 27.8573C191.246 27.3986 191.438 26.8599 191.502 26.2413H191.918C191.854 26.9773 191.614 27.6279 191.198 28.1933C190.782 28.7479 190.163 29.0253 189.342 29.0253ZM190.03 24.7373C190.03 23.6173 189.955 22.7906 189.806 22.2573C189.667 21.7133 189.401 21.4413 189.006 21.4413C188.611 21.4413 188.339 21.7133 188.19 22.2573C188.051 22.7906 187.982 23.6173 187.982 24.7373H190.03ZM199.353 29.0253C198.83 29.0253 198.414 28.8919 198.105 28.6253C197.796 28.3479 197.641 27.9479 197.641 27.4253V26.1613C197.641 25.8626 197.572 25.6279 197.433 25.4573C197.294 25.2759 197.118 25.1853 196.905 25.1853H196.073V28.1933C196.073 28.2893 196.089 28.3586 196.121 28.4013C196.164 28.4333 196.233 28.4493 196.329 28.4493H196.841V28.8333H193.353V28.4493H193.961C194.057 28.4493 194.121 28.4333 194.153 28.4013C194.196 28.3586 194.217 28.2893 194.217 28.1933V21.8893C194.217 21.7933 194.196 21.7293 194.153 21.6973C194.121 21.6546 194.057 21.6333 193.961 21.6333H193.353V21.2493H196.841V21.6333H196.329C196.233 21.6333 196.164 21.6546 196.121 21.6973C196.089 21.7293 196.073 21.7933 196.073 21.8893V24.7373H197.081C197.305 24.7373 197.47 24.6519 197.577 24.4813C197.684 24.3106 197.737 24.0866 197.737 23.8093V22.7213C197.737 22.1879 197.876 21.7773 198.153 21.4893C198.441 21.2013 198.782 21.0573 199.177 21.0573C199.561 21.0573 199.865 21.1693 200.089 21.3933C200.313 21.6173 200.425 21.9159 200.425 22.2893C200.425 22.5879 200.318 22.8386 200.105 23.0413C199.902 23.2333 199.678 23.3293 199.433 23.3293C199.198 23.3293 199.001 23.2653 198.841 23.1373C198.681 22.9986 198.601 22.8119 198.601 22.5773C198.601 22.4386 198.654 22.2893 198.761 22.1293C198.846 22.0119 198.889 21.9159 198.889 21.8413C198.889 21.7453 198.836 21.6973 198.729 21.6973C198.58 21.6973 198.452 21.7826 198.345 21.9533C198.238 22.1133 198.185 22.3639 198.185 22.7053V23.8093C198.185 24.0546 198.153 24.2573 198.089 24.4173C198.025 24.5666 197.913 24.6946 197.753 24.8013V24.8813C198.308 24.9559 198.734 25.1479 199.033 25.4573C199.342 25.7666 199.497 26.2413 199.497 26.8813V27.9213C199.497 28.2093 199.614 28.3533 199.849 28.3533C200.041 28.3533 200.18 28.2093 200.265 27.9213C200.35 27.6226 200.393 27.2546 200.393 26.8173H200.809C200.809 27.5213 200.702 28.0653 200.489 28.4493C200.286 28.8333 199.908 29.0253 199.353 29.0253ZM203.983 29.0253C203.396 29.0253 202.895 28.8813 202.479 28.5933C202.073 28.3053 201.871 27.8199 201.871 27.1373C201.871 26.4439 202.121 25.8999 202.623 25.5053C203.135 25.0999 203.78 24.7639 204.559 24.4973L205.743 24.0813V22.9933C205.743 22.4493 205.631 22.0546 205.407 21.8093C205.183 21.5639 204.895 21.4413 204.543 21.4413C204.244 21.4413 203.983 21.5106 203.759 21.6493C203.545 21.7773 203.439 21.9586 203.439 22.1933C203.439 22.2573 203.455 22.3373 203.487 22.4333C203.529 22.5186 203.599 22.5933 203.695 22.6573C203.855 22.7533 203.967 22.8546 204.031 22.9613C204.105 23.0679 204.143 23.2066 204.143 23.3773C204.143 23.6333 204.047 23.8359 203.855 23.9853C203.673 24.1239 203.471 24.1933 203.247 24.1933C202.969 24.1933 202.729 24.1026 202.527 23.9213C202.335 23.7293 202.239 23.4573 202.239 23.1053C202.239 22.6999 202.361 22.3426 202.607 22.0333C202.852 21.7133 203.167 21.4733 203.551 21.3133C203.935 21.1426 204.324 21.0573 204.719 21.0573C205.487 21.0573 206.159 21.2653 206.735 21.6813C207.311 22.0866 207.599 22.7373 207.599 23.6333V27.6813C207.599 28.0653 207.705 28.2573 207.919 28.2573C208.111 28.2573 208.255 28.0973 208.351 27.7773C208.447 27.4573 208.495 27.0893 208.495 26.6733H208.943C208.943 27.4519 208.825 28.0226 208.591 28.3853C208.473 28.5773 208.308 28.7319 208.095 28.8493C207.881 28.9666 207.636 29.0253 207.359 29.0253C206.921 29.0253 206.591 28.9613 206.367 28.8333C206.143 28.6946 205.956 28.4706 205.807 28.1613H205.775C205.348 28.7373 204.751 29.0253 203.983 29.0253ZM204.767 28.3853C205.183 28.3853 205.508 28.1506 205.743 27.6813V24.5133L204.847 24.8333C204.495 24.9613 204.233 25.2066 204.063 25.5693C203.903 25.9213 203.823 26.3959 203.823 26.9933C203.823 27.5159 203.919 27.8786 204.111 28.0813C204.303 28.2839 204.521 28.3853 204.767 28.3853ZM213.356 29.0253C212.78 29.0253 212.241 28.8546 211.74 28.5133C211.238 28.1613 210.838 27.6813 210.54 27.0733C210.241 26.4653 210.092 25.7879 210.092 25.0413C210.092 23.9746 210.113 23.1479 210.156 22.5613C210.198 21.9746 210.305 21.4466 210.476 20.9773C210.657 20.5079 210.934 20.0653 211.308 19.6493C211.692 19.2333 212.172 18.9133 212.748 18.6893C213.334 18.4653 214.049 18.2519 214.892 18.0493C215.286 17.9533 215.558 17.8573 215.708 17.7613C215.857 17.6546 215.953 17.5053 215.996 17.3133H216.38C216.38 17.9533 216.289 18.4493 216.108 18.8013C215.926 19.1426 215.686 19.3826 215.388 19.5213C215.1 19.6599 214.721 19.7719 214.252 19.8573C213.569 19.9853 213.025 20.1133 212.62 20.2413C212.214 20.3586 211.836 20.5453 211.484 20.8013C211.164 21.0359 210.929 21.3613 210.78 21.7773C210.63 22.1826 210.54 22.6199 210.508 23.0893L210.588 23.1053C211.228 21.7399 212.15 21.0573 213.356 21.0573C213.932 21.0573 214.47 21.2333 214.972 21.5853C215.473 21.9266 215.873 22.4013 216.172 23.0093C216.47 23.6173 216.62 24.2946 216.62 25.0413C216.62 25.7879 216.47 26.4653 216.172 27.0733C215.873 27.6813 215.473 28.1613 214.972 28.5133C214.47 28.8546 213.932 29.0253 213.356 29.0253ZM213.356 28.6413C213.814 28.6413 214.129 28.3586 214.3 27.7933C214.481 27.2279 214.572 26.3106 214.572 25.0413C214.572 23.7719 214.481 22.8546 214.3 22.2893C214.129 21.7239 213.814 21.4413 213.356 21.4413C212.886 21.4413 212.566 21.7239 212.396 22.2893C212.225 22.8439 212.14 23.7613 212.14 25.0413C212.14 26.3213 212.225 27.2439 212.396 27.8093C212.566 28.3639 212.886 28.6413 213.356 28.6413ZM217.833 32.0973H218.729C218.825 32.0973 218.889 32.0759 218.921 32.0333C218.963 32.0013 218.985 31.9373 218.985 31.8413V21.8893C218.985 21.7933 218.963 21.7293 218.921 21.6973C218.889 21.6546 218.825 21.6333 218.729 21.6333H217.833V21.2493H220.841V22.1773H220.937C221.075 21.8786 221.273 21.6173 221.529 21.3933C221.795 21.1693 222.099 21.0573 222.441 21.0573C222.995 21.0573 223.491 21.2493 223.929 21.6333C224.366 22.0066 224.707 22.5026 224.953 23.1213C225.198 23.7293 225.321 24.3693 225.321 25.0413C225.321 25.7239 225.203 26.3693 224.969 26.9773C224.734 27.5853 224.403 28.0813 223.977 28.4653C223.55 28.8386 223.059 29.0253 222.505 29.0253C222.163 29.0253 221.859 28.9239 221.593 28.7213C221.326 28.5186 221.107 28.2413 220.937 27.8893L220.841 27.9213V31.8413C220.841 31.9373 220.857 32.0013 220.889 32.0333C220.931 32.0759 221.001 32.0973 221.097 32.0973H221.993V32.4813H217.833V32.0973ZM222.217 28.5133C222.921 28.5133 223.273 27.3559 223.273 25.0413C223.273 22.7266 222.921 21.5693 222.217 21.5693C221.971 21.5693 221.742 21.7239 221.529 22.0333C221.326 22.3319 221.161 22.7426 221.033 23.2653C220.905 23.7879 220.841 24.3639 220.841 24.9933C220.841 25.7613 220.915 26.4119 221.065 26.9453C221.214 27.4786 221.395 27.8733 221.609 28.1293C221.822 28.3853 222.025 28.5133 222.217 28.5133ZM227.864 29.1213C227.309 29.1213 226.925 28.9293 226.712 28.5453C226.509 28.1613 226.408 27.6173 226.408 26.9133H226.824C226.824 27.3506 226.867 27.7186 226.952 28.0173C227.037 28.3053 227.176 28.4493 227.368 28.4493C227.603 28.4493 227.72 28.3053 227.72 28.0173V27.0413C227.72 26.4333 227.88 25.9853 228.2 25.6973C228.531 25.4093 228.979 25.2226 229.544 25.1373V25.0573C228.136 24.8226 227.432 24.2093 227.432 23.2173C227.432 22.6199 227.677 22.1453 228.168 21.7933C228.669 21.4306 229.347 21.2493 230.2 21.2493H233.896V21.6333H233.384C233.288 21.6333 233.219 21.6546 233.176 21.6973C233.144 21.7293 233.128 21.7933 233.128 21.8893V28.1933C233.128 28.2893 233.144 28.3586 233.176 28.4013C233.219 28.4333 233.288 28.4493 233.384 28.4493H233.992V28.8333H230.408V28.4493H231.016C231.112 28.4493 231.176 28.4333 231.208 28.4013C231.251 28.3586 231.272 28.2893 231.272 28.1933V25.1853H230.648C229.933 25.1853 229.576 25.5586 229.576 26.3053V27.5213C229.576 28.0439 229.421 28.4439 229.112 28.7213C228.803 28.9879 228.387 29.1213 227.864 29.1213ZM231.272 24.8013V21.8893C231.272 21.7933 231.251 21.7293 231.208 21.6973C231.176 21.6546 231.107 21.6333 231 21.6333H230.424C230.029 21.6333 229.752 21.7773 229.592 22.0653C229.432 22.3426 229.352 22.7266 229.352 23.2173C229.352 24.2733 229.709 24.8013 230.424 24.8013H231.272ZM239.503 28.5133H240.047C240.292 28.5133 240.468 28.4706 240.575 28.3853C240.682 28.2893 240.772 28.1399 240.847 27.9373C241.124 27.1266 241.338 26.2306 241.487 25.2493C241.636 24.2679 241.711 23.2759 241.711 22.2733C241.711 22.1026 241.668 21.9533 241.583 21.8253C241.508 21.6973 241.391 21.6333 241.231 21.6333H240.687V21.2493H246.607V21.6333H245.839C245.743 21.6333 245.674 21.6546 245.631 21.6973C245.599 21.7293 245.583 21.7933 245.583 21.8893V27.9373C245.583 28.1293 245.62 28.2733 245.695 28.3693C245.78 28.4653 245.914 28.5133 246.095 28.5133H246.959L247.055 31.3293H246.607C246.596 31.2546 246.554 31.0786 246.479 30.8013C246.404 30.5346 246.308 30.2839 246.191 30.0493C246.02 29.6973 245.823 29.4039 245.599 29.1693C245.375 28.9453 245.076 28.8333 244.703 28.8333H241.759C241.386 28.8333 241.087 28.9453 240.863 29.1693C240.639 29.4039 240.442 29.6973 240.271 30.0493C240.154 30.2946 240.058 30.5506 239.983 30.8173C239.908 31.0839 239.866 31.2546 239.855 31.3293H239.407L239.503 28.5133ZM243.471 28.4493C243.642 28.4493 243.727 28.3533 243.727 28.1613V21.8893C243.727 21.7933 243.706 21.7293 243.663 21.6973C243.631 21.6546 243.567 21.6333 243.471 21.6333H243.135C242.772 21.6333 242.522 21.7666 242.383 22.0333C242.255 22.2999 242.18 22.6573 242.159 23.1053C242.138 23.7559 242.063 24.4813 241.935 25.2813C241.818 26.0813 241.69 26.7426 241.551 27.2653C241.444 27.6493 241.391 27.9373 241.391 28.1293C241.391 28.2253 241.428 28.3053 241.503 28.3693C241.578 28.4226 241.658 28.4493 241.743 28.4493H243.471ZM251.432 29.0253C250.856 29.0253 250.318 28.8546 249.816 28.5133C249.315 28.1613 248.915 27.6813 248.616 27.0733C248.318 26.4653 248.168 25.7879 248.168 25.0413C248.168 24.2946 248.318 23.6173 248.616 23.0093C248.915 22.4013 249.315 21.9266 249.816 21.5853C250.318 21.2333 250.856 21.0573 251.432 21.0573C252.008 21.0573 252.547 21.2333 253.048 21.5853C253.55 21.9266 253.95 22.4013 254.248 23.0093C254.547 23.6173 254.696 24.2946 254.696 25.0413C254.696 25.7879 254.547 26.4653 254.248 27.0733C253.95 27.6813 253.55 28.1613 253.048 28.5133C252.547 28.8546 252.008 29.0253 251.432 29.0253ZM251.432 28.6413C251.891 28.6413 252.206 28.3586 252.376 27.7933C252.558 27.2279 252.648 26.3106 252.648 25.0413C252.648 23.7719 252.558 22.8546 252.376 22.2893C252.206 21.7239 251.891 21.4413 251.432 21.4413C250.974 21.4413 250.654 21.7239 250.472 22.2893C250.302 22.8546 250.216 23.7719 250.216 25.0413C250.216 26.3106 250.302 27.2279 250.472 27.7933C250.654 28.3586 250.974 28.6413 251.432 28.6413ZM265.323 29.0893C264.641 29.0893 263.947 28.6946 263.243 27.9053C263.041 27.6813 262.87 27.5266 262.731 27.4413C262.603 27.3453 262.443 27.2973 262.251 27.2973C262.102 27.2973 261.979 27.3453 261.883 27.4413C261.787 27.5266 261.739 27.6493 261.739 27.8093V28.8333H261.099V28.0813C261.099 27.6653 261.137 27.2759 261.211 26.9133C261.297 26.5399 261.489 26.1079 261.787 25.6173C262.086 25.1159 262.545 24.5719 263.163 23.9853C263.942 23.2279 264.545 22.5399 264.971 21.9213C265.398 21.2919 265.611 20.6093 265.611 19.8733C265.611 19.2759 265.489 18.7746 265.243 18.3693C264.998 17.9639 264.582 17.7613 263.995 17.7613C263.59 17.7613 263.249 17.8946 262.971 18.1613C262.705 18.4173 262.571 18.7213 262.571 19.0733C262.571 19.4999 262.721 19.8199 263.019 20.0333C263.254 20.2039 263.43 20.3746 263.547 20.5453C263.675 20.7053 263.739 20.9079 263.739 21.1533C263.739 21.4306 263.638 21.6599 263.435 21.8413C263.233 22.0226 262.977 22.1133 262.667 22.1133C262.209 22.1133 261.809 21.9479 261.467 21.6173C261.137 21.2866 260.971 20.8439 260.971 20.2893C260.971 19.7239 261.121 19.2066 261.419 18.7373C261.729 18.2573 262.145 17.8786 262.667 17.6013C263.201 17.3239 263.787 17.1853 264.427 17.1853C265.601 17.1853 266.491 17.4573 267.099 18.0013C267.707 18.5346 268.011 19.2439 268.011 20.1293C268.011 20.7373 267.819 21.2866 267.435 21.7773C267.062 22.2679 266.603 22.6946 266.059 23.0573C265.526 23.4093 264.849 23.8039 264.027 24.2413C263.569 24.4973 263.137 24.8226 262.731 25.2173C262.326 25.6119 262.049 26.0866 261.899 26.6413L261.963 26.6733C262.347 26.3639 262.779 26.2093 263.259 26.2093C263.451 26.2093 263.681 26.2359 263.947 26.2893C264.225 26.3426 264.454 26.4013 264.635 26.4653C265.169 26.6359 265.654 26.7213 266.091 26.7213C266.475 26.7213 266.795 26.6093 267.051 26.3853C267.307 26.1506 267.435 25.8786 267.435 25.5693C267.435 25.2599 267.409 24.9026 267.355 24.4973H267.851C267.915 24.9559 267.947 25.3719 267.947 25.7453C267.947 26.2893 267.857 26.8173 267.675 27.3293C267.505 27.8306 267.222 28.2519 266.827 28.5933C266.433 28.9239 265.931 29.0893 265.323 29.0893ZM273.869 29.0893C273.101 29.0893 272.423 28.7906 271.837 28.1933C271.261 27.5959 270.813 26.8386 270.493 25.9213C270.183 24.9933 270.029 24.0653 270.029 23.1373C270.029 22.2093 270.183 21.2866 270.493 20.3693C270.813 19.4413 271.261 18.6786 271.837 18.0813C272.423 17.4839 273.101 17.1853 273.869 17.1853C274.637 17.1853 275.309 17.4839 275.885 18.0813C276.471 18.6786 276.919 19.4413 277.229 20.3693C277.549 21.2866 277.709 22.2093 277.709 23.1373C277.709 24.0653 277.549 24.9933 277.229 25.9213C276.919 26.8386 276.471 27.5959 275.885 28.1933C275.309 28.7906 274.637 29.0893 273.869 29.0893ZM273.869 28.5773C274.263 28.5773 274.546 28.3639 274.717 27.9373C274.898 27.4999 274.989 27.0306 274.989 26.5293V19.7453C274.989 19.2439 274.898 18.7799 274.717 18.3533C274.546 17.9159 274.263 17.6973 273.869 17.6973C273.474 17.6973 273.186 17.9159 273.005 18.3533C272.834 18.7799 272.749 19.2439 272.749 19.7453V26.5293C272.749 27.0306 272.834 27.4999 273.005 27.9373C273.186 28.3639 273.474 28.5773 273.869 28.5773ZM283.378 28.5133H283.922C284.167 28.5133 284.343 28.4706 284.45 28.3853C284.557 28.2893 284.647 28.1399 284.722 27.9373C284.999 27.1266 285.213 26.2306 285.362 25.2493C285.511 24.2679 285.586 23.2759 285.586 22.2733C285.586 22.1026 285.543 21.9533 285.458 21.8253C285.383 21.6973 285.266 21.6333 285.106 21.6333H284.562V21.2493H290.482V21.6333H289.714C289.618 21.6333 289.549 21.6546 289.506 21.6973C289.474 21.7293 289.458 21.7933 289.458 21.8893V27.9373C289.458 28.1293 289.495 28.2733 289.57 28.3693C289.655 28.4653 289.789 28.5133 289.97 28.5133H290.834L290.93 31.3293H290.482C290.471 31.2546 290.429 31.0786 290.354 30.8013C290.279 30.5346 290.183 30.2839 290.066 30.0493C289.895 29.6973 289.698 29.4039 289.474 29.1693C289.25 28.9453 288.951 28.8333 288.578 28.8333H285.634C285.261 28.8333 284.962 28.9453 284.738 29.1693C284.514 29.4039 284.317 29.6973 284.146 30.0493C284.029 30.2946 283.933 30.5506 283.858 30.8173C283.783 31.0839 283.741 31.2546 283.73 31.3293H283.282L283.378 28.5133ZM287.346 28.4493C287.517 28.4493 287.602 28.3533 287.602 28.1613V21.8893C287.602 21.7933 287.581 21.7293 287.538 21.6973C287.506 21.6546 287.442 21.6333 287.346 21.6333H287.01C286.647 21.6333 286.397 21.7666 286.258 22.0333C286.13 22.2999 286.055 22.6573 286.034 23.1053C286.013 23.7559 285.938 24.4813 285.81 25.2813C285.693 26.0813 285.565 26.7426 285.426 27.2653C285.319 27.6493 285.266 27.9373 285.266 28.1293C285.266 28.2253 285.303 28.3053 285.378 28.3693C285.453 28.4226 285.533 28.4493 285.618 28.4493H287.346ZM295.451 29.0253C294.79 29.0253 294.198 28.8493 293.675 28.4973C293.163 28.1346 292.763 27.6493 292.475 27.0413C292.187 26.4333 292.043 25.7666 292.043 25.0413C292.043 24.2946 292.187 23.6173 292.475 23.0093C292.763 22.4013 293.153 21.9266 293.643 21.5853C294.145 21.2333 294.689 21.0573 295.275 21.0573C295.926 21.0573 296.486 21.2919 296.955 21.7613C297.425 22.2199 297.734 22.8279 297.883 23.5853C297.958 23.9266 297.995 24.4599 297.995 25.1853H294.091C294.091 25.6973 294.102 26.1026 294.123 26.4013C294.145 26.6893 294.193 26.9719 294.267 27.2493C294.363 27.6439 294.545 27.9586 294.811 28.1933C295.089 28.4279 295.409 28.5453 295.771 28.5453C296.294 28.5453 296.715 28.3159 297.035 27.8573C297.355 27.3986 297.547 26.8599 297.611 26.2413H298.027C297.963 26.9773 297.723 27.6279 297.307 28.1933C296.891 28.7479 296.273 29.0253 295.451 29.0253ZM296.139 24.7373C296.139 23.6173 296.065 22.7906 295.915 22.2573C295.777 21.7133 295.51 21.4413 295.115 21.4413C294.721 21.4413 294.449 21.7133 294.299 22.2573C294.161 22.7906 294.091 23.6173 294.091 24.7373H296.139ZM305.462 29.0253C304.94 29.0253 304.524 28.8919 304.214 28.6253C303.905 28.3479 303.75 27.9479 303.75 27.4253V26.1613C303.75 25.8626 303.681 25.6279 303.542 25.4573C303.404 25.2759 303.228 25.1853 303.014 25.1853H302.182V28.1933C302.182 28.2893 302.198 28.3586 302.23 28.4013C302.273 28.4333 302.342 28.4493 302.438 28.4493H302.95V28.8333H299.462V28.4493H300.07C300.166 28.4493 300.23 28.4333 300.262 28.4013C300.305 28.3586 300.326 28.2893 300.326 28.1933V21.8893C300.326 21.7933 300.305 21.7293 300.262 21.6973C300.23 21.6546 300.166 21.6333 300.07 21.6333H299.462V21.2493H302.95V21.6333H302.438C302.342 21.6333 302.273 21.6546 302.23 21.6973C302.198 21.7293 302.182 21.7933 302.182 21.8893V24.7373H303.19C303.414 24.7373 303.58 24.6519 303.686 24.4813C303.793 24.3106 303.846 24.0866 303.846 23.8093V22.7213C303.846 22.1879 303.985 21.7773 304.262 21.4893C304.55 21.2013 304.892 21.0573 305.286 21.0573C305.67 21.0573 305.974 21.1693 306.198 21.3933C306.422 21.6173 306.534 21.9159 306.534 22.2893C306.534 22.5879 306.428 22.8386 306.214 23.0413C306.012 23.2333 305.788 23.3293 305.542 23.3293C305.308 23.3293 305.11 23.2653 304.95 23.1373C304.79 22.9986 304.71 22.8119 304.71 22.5773C304.71 22.4386 304.764 22.2893 304.87 22.1293C304.956 22.0119 304.998 21.9159 304.998 21.8413C304.998 21.7453 304.945 21.6973 304.838 21.6973C304.689 21.6973 304.561 21.7826 304.454 21.9533C304.348 22.1133 304.294 22.3639 304.294 22.7053V23.8093C304.294 24.0546 304.262 24.2573 304.198 24.4173C304.134 24.5666 304.022 24.6946 303.862 24.8013V24.8813C304.417 24.9559 304.844 25.1479 305.142 25.4573C305.452 25.7666 305.606 26.2413 305.606 26.8813V27.9213C305.606 28.2093 305.724 28.3533 305.958 28.3533C306.15 28.3533 306.289 28.2093 306.374 27.9213C306.46 27.6226 306.502 27.2546 306.502 26.8173H306.918C306.918 27.5213 306.812 28.0653 306.598 28.4493C306.396 28.8333 306.017 29.0253 305.462 29.0253ZM310.092 29.0253C309.505 29.0253 309.004 28.8813 308.588 28.5933C308.183 28.3053 307.98 27.8199 307.98 27.1373C307.98 26.4439 308.231 25.8999 308.732 25.5053C309.244 25.0999 309.889 24.7639 310.668 24.4973L311.852 24.0813V22.9933C311.852 22.4493 311.74 22.0546 311.516 21.8093C311.292 21.5639 311.004 21.4413 310.652 21.4413C310.353 21.4413 310.092 21.5106 309.868 21.6493C309.655 21.7773 309.548 21.9586 309.548 22.1933C309.548 22.2573 309.564 22.3373 309.596 22.4333C309.639 22.5186 309.708 22.5933 309.804 22.6573C309.964 22.7533 310.076 22.8546 310.14 22.9613C310.215 23.0679 310.252 23.2066 310.252 23.3773C310.252 23.6333 310.156 23.8359 309.964 23.9853C309.783 24.1239 309.58 24.1933 309.356 24.1933C309.079 24.1933 308.839 24.1026 308.636 23.9213C308.444 23.7293 308.348 23.4573 308.348 23.1053C308.348 22.6999 308.471 22.3426 308.716 22.0333C308.961 21.7133 309.276 21.4733 309.66 21.3133C310.044 21.1426 310.433 21.0573 310.828 21.0573C311.596 21.0573 312.268 21.2653 312.844 21.6813C313.42 22.0866 313.708 22.7373 313.708 23.6333V27.6813C313.708 28.0653 313.815 28.2573 314.028 28.2573C314.22 28.2573 314.364 28.0973 314.46 27.7773C314.556 27.4573 314.604 27.0893 314.604 26.6733H315.052C315.052 27.4519 314.935 28.0226 314.7 28.3853C314.583 28.5773 314.417 28.7319 314.204 28.8493C313.991 28.9666 313.745 29.0253 313.468 29.0253C313.031 29.0253 312.7 28.9613 312.476 28.8333C312.252 28.6946 312.065 28.4706 311.916 28.1613H311.884C311.457 28.7373 310.86 29.0253 310.092 29.0253ZM310.876 28.3853C311.292 28.3853 311.617 28.1506 311.852 27.6813V24.5133L310.956 24.8333C310.604 24.9613 310.343 25.2066 310.172 25.5693C310.012 25.9213 309.932 26.3959 309.932 26.9933C309.932 27.5159 310.028 27.8786 310.22 28.0813C310.412 28.2839 310.631 28.3853 310.876 28.3853ZM319.465 29.0253C318.889 29.0253 318.35 28.8546 317.849 28.5133C317.348 28.1613 316.948 27.6813 316.649 27.0733C316.35 26.4653 316.201 25.7879 316.201 25.0413C316.201 23.9746 316.222 23.1479 316.265 22.5613C316.308 21.9746 316.414 21.4466 316.585 20.9773C316.766 20.5079 317.044 20.0653 317.417 19.6493C317.801 19.2333 318.281 18.9133 318.857 18.6893C319.444 18.4653 320.158 18.2519 321.001 18.0493C321.396 17.9533 321.668 17.8573 321.817 17.7613C321.966 17.6546 322.062 17.5053 322.105 17.3133H322.489C322.489 17.9533 322.398 18.4493 322.217 18.8013C322.036 19.1426 321.796 19.3826 321.497 19.5213C321.209 19.6599 320.83 19.7719 320.361 19.8573C319.678 19.9853 319.134 20.1133 318.729 20.2413C318.324 20.3586 317.945 20.5453 317.593 20.8013C317.273 21.0359 317.038 21.3613 316.889 21.7773C316.74 22.1826 316.649 22.6199 316.617 23.0893L316.697 23.1053C317.337 21.7399 318.26 21.0573 319.465 21.0573C320.041 21.0573 320.58 21.2333 321.081 21.5853C321.582 21.9266 321.982 22.4013 322.281 23.0093C322.58 23.6173 322.729 24.2946 322.729 25.0413C322.729 25.7879 322.58 26.4653 322.281 27.0733C321.982 27.6813 321.582 28.1613 321.081 28.5133C320.58 28.8546 320.041 29.0253 319.465 29.0253ZM319.465 28.6413C319.924 28.6413 320.238 28.3586 320.409 27.7933C320.59 27.2279 320.681 26.3106 320.681 25.0413C320.681 23.7719 320.59 22.8546 320.409 22.2893C320.238 21.7239 319.924 21.4413 319.465 21.4413C318.996 21.4413 318.676 21.7239 318.505 22.2893C318.334 22.8439 318.249 23.7613 318.249 25.0413C318.249 26.3213 318.334 27.2439 318.505 27.8093C318.676 28.3639 318.996 28.6413 319.465 28.6413ZM323.942 32.0973H324.838C324.934 32.0973 324.998 32.0759 325.03 32.0333C325.073 32.0013 325.094 31.9373 325.094 31.8413V21.8893C325.094 21.7933 325.073 21.7293 325.03 21.6973C324.998 21.6546 324.934 21.6333 324.838 21.6333H323.942V21.2493H326.95V22.1773H327.046C327.185 21.8786 327.382 21.6173 327.638 21.3933C327.905 21.1693 328.209 21.0573 328.55 21.0573C329.105 21.0573 329.601 21.2493 330.038 21.6333C330.475 22.0066 330.817 22.5026 331.062 23.1213C331.307 23.7293 331.43 24.3693 331.43 25.0413C331.43 25.7239 331.313 26.3693 331.078 26.9773C330.843 27.5853 330.513 28.0813 330.086 28.4653C329.659 28.8386 329.169 29.0253 328.614 29.0253C328.273 29.0253 327.969 28.9239 327.702 28.7213C327.435 28.5186 327.217 28.2413 327.046 27.8893L326.95 27.9213V31.8413C326.95 31.9373 326.966 32.0013 326.998 32.0333C327.041 32.0759 327.11 32.0973 327.206 32.0973H328.102V32.4813H323.942V32.0973ZM328.326 28.5133C329.03 28.5133 329.382 27.3559 329.382 25.0413C329.382 22.7266 329.03 21.5693 328.326 21.5693C328.081 21.5693 327.851 21.7239 327.638 22.0333C327.435 22.3319 327.27 22.7426 327.142 23.2653C327.014 23.7879 326.95 24.3639 326.95 24.9933C326.95 25.7613 327.025 26.4119 327.174 26.9453C327.323 27.4786 327.505 27.8733 327.718 28.1293C327.931 28.3853 328.134 28.5133 328.326 28.5133ZM333.973 29.1213C333.419 29.1213 333.035 28.9293 332.821 28.5453C332.619 28.1613 332.517 27.6173 332.517 26.9133H332.933C332.933 27.3506 332.976 27.7186 333.061 28.0173C333.147 28.3053 333.285 28.4493 333.477 28.4493C333.712 28.4493 333.829 28.3053 333.829 28.0173V27.0413C333.829 26.4333 333.989 25.9853 334.309 25.6973C334.64 25.4093 335.088 25.2226 335.653 25.1373V25.0573C334.245 24.8226 333.541 24.2093 333.541 23.2173C333.541 22.6199 333.787 22.1453 334.277 21.7933C334.779 21.4306 335.456 21.2493 336.309 21.2493H340.005V21.6333H339.493C339.397 21.6333 339.328 21.6546 339.285 21.6973C339.253 21.7293 339.237 21.7933 339.237 21.8893V28.1933C339.237 28.2893 339.253 28.3586 339.285 28.4013C339.328 28.4333 339.397 28.4493 339.493 28.4493H340.101V28.8333H336.517V28.4493H337.125C337.221 28.4493 337.285 28.4333 337.317 28.4013C337.36 28.3586 337.381 28.2893 337.381 28.1933V25.1853H336.757C336.043 25.1853 335.685 25.5586 335.685 26.3053V27.5213C335.685 28.0439 335.531 28.4439 335.221 28.7213C334.912 28.9879 334.496 29.1213 333.973 29.1213ZM337.381 24.8013V21.8893C337.381 21.7933 337.36 21.7293 337.317 21.6973C337.285 21.6546 337.216 21.6333 337.109 21.6333H336.533C336.139 21.6333 335.861 21.7773 335.701 22.0653C335.541 22.3426 335.461 22.7266 335.461 23.2173C335.461 24.2733 335.819 24.8013 336.533 24.8013H337.381Z" fill="white"/>
</svg>
