<svg width="187" height="53" viewBox="0 0 187 53" fill="none" xmlns="http://www.w3.org/2000/svg">
<rect width="187" height="53" rx="26.5" fill="#FF002E" fill-opacity="0.61"/>
<path d="M85.84 38.976H88.144C88.4427 38.976 88.6453 38.9227 88.752 38.816C88.8587 38.688 88.912 38.4853 88.912 38.208V20.704H85.84V19.552H87.024C87.9627 19.552 88.8267 19.3493 89.616 18.944C90.4267 18.5387 90.9707 17.9627 91.248 17.216H93.648V38.208C93.648 38.4853 93.7013 38.688 93.808 38.816C93.936 38.9227 94.1387 38.976 94.416 38.976H96.72V40H85.84V38.976Z" fill="white"/>
<path d="M35.5312 17.5C35.9042 17.5 36.2619 17.6383 36.5256 17.8844C36.7893 18.1306 36.9375 18.4644 36.9375 18.8125V26.25H44.9062C45.2792 26.25 45.6369 26.3883 45.9006 26.6344C46.1643 26.8806 46.3125 27.2144 46.3125 27.5625C46.3125 27.9106 46.1643 28.2444 45.9006 28.4906C45.6369 28.7367 45.2792 28.875 44.9062 28.875H36.9375V36.3125C36.9375 36.6606 36.7893 36.9944 36.5256 37.2406C36.2619 37.4867 35.9042 37.625 35.5312 37.625C35.1583 37.625 34.8006 37.4867 34.5369 37.2406C34.2732 36.9944 34.125 36.6606 34.125 36.3125V28.875H26.1562C25.7833 28.875 25.4256 28.7367 25.1619 28.4906C24.8982 28.2444 24.75 27.9106 24.75 27.5625C24.75 27.2144 24.8982 26.8806 25.1619 26.6344C25.4256 26.3883 25.7833 26.25 26.1562 26.25H34.125V18.8125C34.125 18.4644 34.2732 18.1306 34.5369 17.8844C34.8006 17.6383 35.1583 17.5 35.5312 17.5Z" fill="white"/>
<path d="M130.333 27H153.666" stroke="white" stroke-width="3" stroke-linecap="round" stroke-linejoin="round"/>
</svg>
