<svg width="204" height="30" viewBox="0 0 204 30" fill="none" xmlns="http://www.w3.org/2000/svg">
<path d="M166.985 0C158.705 0 152 6.72 152 15C152 23.28 158.705 30 166.985 30C175.28 30 182 23.28 182 15C182 6.72 175.28 0 166.985 0ZM178.205 10.74L170.69 10.095L167.69 3.03C172.505 3.315 176.555 6.435 178.205 10.74ZM167 9.09L168.635 12.93L172.805 13.29L169.64 16.035L170.585 20.13L167 17.97L163.415 20.13L164.36 16.05L161.195 13.305L165.365 12.945L167 9.09ZM166.31 3.03L163.31 10.11L155.78 10.755C157.43 6.435 161.48 3.3 166.31 3.03ZM155 15C155 14.04 155.12 13.11 155.345 12.21L161.03 17.13L159.365 24.255C158.001 23.1285 156.903 21.7149 156.149 20.1151C155.394 18.5154 155.002 16.7688 155 15ZM166.985 27C164.705 27 162.575 26.34 160.76 25.23L167 21.465L173.24 25.23C171.357 26.3837 169.193 26.9961 166.985 27ZM174.635 24.255L172.985 17.115L178.67 12.195C178.865 13.095 179 14.04 179 15C179 18.72 177.29 22.05 174.635 24.255Z" fill="#FFD233"/>
<path d="M8.784 23.432C7.552 23.432 6.384 23.008 5.28 22.16C4.192 21.312 3.32 20.2 2.664 18.824C2.008 17.432 1.68 15.976 1.68 14.456C1.68 12.936 2.008 11.488 2.664 10.112C3.32 8.72 4.192 7.6 5.28 6.752C6.384 5.904 7.552 5.48 8.784 5.48C10.016 5.48 11.176 5.904 12.264 6.752C13.368 7.6 14.248 8.72 14.904 10.112C15.56 11.488 15.888 12.936 15.888 14.456C15.888 15.976 15.56 17.432 14.904 18.824C14.248 20.2 13.368 21.312 12.264 22.16C11.176 23.008 10.016 23.432 8.784 23.432ZM8.784 22.664C9.76 22.664 10.504 22.312 11.016 21.608C11.544 20.888 11.808 19.704 11.808 18.056V10.856C11.808 9.208 11.544 8.032 11.016 7.328C10.504 6.608 9.76 6.248 8.784 6.248C7.808 6.248 7.056 6.608 6.528 7.328C6.016 8.032 5.76 9.208 5.76 10.856V18.056C5.76 19.704 6.016 20.888 6.528 21.608C7.056 22.312 7.808 22.664 8.784 22.664ZM19.7739 22.424H21.1179C21.2619 22.424 21.3579 22.4 21.4059 22.352C21.4699 22.288 21.5019 22.184 21.5019 22.04V12.584C21.5019 12.424 21.4699 12.32 21.4059 12.272C21.3579 12.224 21.2619 12.2 21.1179 12.2C20.7659 12.2 20.4219 12.4 20.0859 12.8C19.7659 13.184 19.5019 13.632 19.2939 14.144C19.0699 14.688 18.9019 15.168 18.7899 15.584C18.6939 16 18.6379 16.264 18.6219 16.376H17.9499L18.0939 11.624H27.6939L27.8379 16.376H27.1659C27.1499 16.264 27.0859 16 26.9739 15.584C26.8779 15.168 26.7179 14.688 26.4939 14.144C26.2859 13.632 26.0139 13.184 25.6779 12.8C25.3579 12.4 25.0219 12.2 24.6699 12.2C24.5259 12.2 24.4219 12.224 24.3579 12.272C24.3099 12.32 24.2859 12.424 24.2859 12.584V22.04C24.2859 22.184 24.3099 22.288 24.3579 22.352C24.4219 22.4 24.5259 22.424 24.6699 22.424H26.0139V23H19.7739V22.424ZM33.4149 23.288C32.4709 23.288 31.6469 23.048 30.9429 22.568C30.2549 22.072 29.9109 21.368 29.9109 20.456C29.9109 19.976 30.0629 19.568 30.3669 19.232C30.6869 18.896 31.0629 18.728 31.4949 18.728C31.8629 18.728 32.1669 18.84 32.4069 19.064C32.6629 19.288 32.7909 19.552 32.7909 19.856C32.7909 20.096 32.7429 20.304 32.6469 20.48C32.5509 20.64 32.3829 20.792 32.1429 20.936C31.8069 21.16 31.6389 21.384 31.6389 21.608C31.6389 21.992 31.8069 22.272 32.1429 22.448C32.4949 22.624 32.9509 22.712 33.5109 22.712C34.0549 22.712 34.4709 22.464 34.7589 21.968C35.0469 21.456 35.1909 20.736 35.1909 19.808C35.1909 19.104 35.0709 18.528 34.8309 18.08C34.6069 17.616 34.2229 17.384 33.6789 17.384H31.4949V16.712H33.6549C34.1989 16.712 34.5509 16.488 34.7109 16.04C34.8709 15.592 34.9509 15 34.9509 14.264C34.9509 12.696 34.4949 11.912 33.5829 11.912C32.9109 11.912 32.3189 12.32 31.8069 13.136C31.3109 13.936 30.9669 14.864 30.7749 15.92H30.1989V11.48H30.7749L30.9669 12.056C31.0309 12.232 31.1269 12.32 31.2549 12.32C31.3509 12.32 31.5029 12.24 31.7109 12.08C32.3989 11.584 33.1589 11.336 33.9909 11.336C35.1589 11.336 36.0709 11.608 36.7269 12.152C37.3989 12.696 37.7349 13.384 37.7349 14.216C37.7349 14.824 37.4949 15.376 37.0149 15.872C36.5349 16.352 35.9269 16.68 35.1909 16.856V17C37.2389 17.416 38.2629 18.44 38.2629 20.072C38.2629 21.048 37.8309 21.832 36.9669 22.424C36.1189 23 34.9349 23.288 33.4149 23.288ZM40.0772 22.424H40.9892C41.1332 22.424 41.2292 22.4 41.2772 22.352C41.3412 22.288 41.3732 22.184 41.3732 22.04V12.584C41.3732 12.44 41.3412 12.344 41.2772 12.296C41.2292 12.232 41.1332 12.2 40.9892 12.2H40.0772V11.624H45.4052V12.2H44.5892C44.4292 12.2 44.3172 12.24 44.2532 12.32C44.1892 12.4 44.1572 12.544 44.1572 12.752V16.808H46.2212C47.2132 16.808 48.0372 17.104 48.6932 17.696C49.3492 18.288 49.6772 19.016 49.6772 19.88C49.6772 20.456 49.5252 20.984 49.2212 21.464C48.9332 21.928 48.5252 22.304 47.9972 22.592C47.4692 22.864 46.8772 23 46.2212 23H40.0772V22.424ZM49.3412 22.424H50.1092C50.2532 22.424 50.3492 22.4 50.3972 22.352C50.4612 22.288 50.4932 22.184 50.4932 22.04V12.584C50.4932 12.44 50.4612 12.344 50.3972 12.296C50.3492 12.232 50.2532 12.2 50.1092 12.2H49.3412V11.624H54.5732V12.2H53.6612C53.5172 12.2 53.4132 12.232 53.3492 12.296C53.3012 12.344 53.2772 12.44 53.2772 12.584V22.04C53.2772 22.184 53.3012 22.288 53.3492 22.352C53.4132 22.4 53.5172 22.424 53.6612 22.424H54.5732V23H49.3412V22.424ZM45.2132 22.424C45.7092 22.424 46.0852 22.184 46.3412 21.704C46.6132 21.224 46.7492 20.616 46.7492 19.88C46.7492 19.144 46.6212 18.544 46.3652 18.08C46.1092 17.616 45.7252 17.384 45.2132 17.384H44.1572V22.04C44.1572 22.184 44.1812 22.288 44.2292 22.352C44.2932 22.4 44.3972 22.424 44.5412 22.424H45.2132ZM56.4834 22.424H57.3954C57.5394 22.424 57.6354 22.4 57.6834 22.352C57.7474 22.288 57.7794 22.184 57.7794 22.04V12.584C57.7794 12.44 57.7474 12.344 57.6834 12.296C57.6354 12.232 57.5394 12.2 57.3954 12.2H56.4834V11.624H62.2674C63.3394 11.624 64.1874 11.872 64.8114 12.368C65.4514 12.848 65.7714 13.512 65.7714 14.36C65.7714 15.08 65.4914 15.656 64.9314 16.088C64.3714 16.504 63.6754 16.768 62.8434 16.88V16.976C63.9474 17.056 64.8274 17.36 65.4834 17.888C66.1394 18.416 66.4674 19.136 66.4674 20.048C66.4674 20.896 66.1314 21.6 65.4594 22.16C64.7874 22.72 63.9634 23 62.9874 23H56.4834V22.424ZM61.6914 16.712C62.1714 16.712 62.5074 16.512 62.6994 16.112C62.8914 15.696 62.9874 15.136 62.9874 14.432C62.9874 13.712 62.8754 13.16 62.6514 12.776C62.4274 12.392 62.1074 12.2 61.6914 12.2H60.9474C60.8034 12.2 60.6994 12.232 60.6354 12.296C60.5874 12.344 60.5634 12.44 60.5634 12.584V16.712H61.6914ZM61.8594 22.424C62.3554 22.424 62.7314 22.184 62.9874 21.704C63.2594 21.208 63.3954 20.584 63.3954 19.832C63.3954 19.096 63.2674 18.504 63.0114 18.056C62.7554 17.608 62.3714 17.384 61.8594 17.384H60.5634V22.04C60.5634 22.184 60.5874 22.288 60.6354 22.352C60.6994 22.4 60.8034 22.424 60.9474 22.424H61.8594ZM68.4834 22.424H69.3954C69.5394 22.424 69.6354 22.4 69.6834 22.352C69.7474 22.288 69.7794 22.184 69.7794 22.04V12.584C69.7794 12.44 69.7474 12.344 69.6834 12.296C69.6354 12.232 69.5394 12.2 69.3954 12.2H68.4834V11.624H73.8114V12.2H72.9954C72.8354 12.2 72.7234 12.24 72.6594 12.32C72.5954 12.4 72.5634 12.544 72.5634 12.752V16.808H74.6274C75.6194 16.808 76.4434 17.104 77.0994 17.696C77.7554 18.288 78.0834 19.016 78.0834 19.88C78.0834 20.456 77.9314 20.984 77.6274 21.464C77.3394 21.928 76.9314 22.304 76.4034 22.592C75.8754 22.864 75.2834 23 74.6274 23H68.4834V22.424ZM77.7474 22.424H78.5154C78.6594 22.424 78.7554 22.4 78.8034 22.352C78.8674 22.288 78.8994 22.184 78.8994 22.04V12.584C78.8994 12.44 78.8674 12.344 78.8034 12.296C78.7554 12.232 78.6594 12.2 78.5154 12.2H77.7474V11.624H82.9794V12.2H82.0674C81.9234 12.2 81.8194 12.232 81.7554 12.296C81.7074 12.344 81.6834 12.44 81.6834 12.584V22.04C81.6834 22.184 81.7074 22.288 81.7554 22.352C81.8194 22.4 81.9234 22.424 82.0674 22.424H82.9794V23H77.7474V22.424ZM73.6194 22.424C74.1154 22.424 74.4914 22.184 74.7474 21.704C75.0194 21.224 75.1554 20.616 75.1554 19.88C75.1554 19.144 75.0274 18.544 74.7714 18.08C74.5154 17.616 74.1314 17.384 73.6194 17.384H72.5634V22.04C72.5634 22.184 72.5874 22.288 72.6354 22.352C72.6994 22.4 72.8034 22.424 72.9474 22.424H73.6194ZM94.2563 22.232H96.5603C96.7843 22.232 96.9363 22.192 97.0163 22.112C97.0963 22.016 97.1363 21.864 97.1363 21.656V18.104H91.8563V17.216L98.1683 5.888H100.688V17.24H103.28V18.104H100.688V21.656C100.688 21.864 100.728 22.016 100.808 22.112C100.904 22.192 101.056 22.232 101.264 22.232H102.992V23H94.2563V22.232ZM93.0563 17.24H97.1363V9.944L93.0563 17.24ZM108.178 22.232H110.482C110.706 22.232 110.858 22.192 110.938 22.112C111.018 22.016 111.058 21.864 111.058 21.656V18.104H105.778V17.216L112.09 5.888H114.61V17.24H117.202V18.104H114.61V21.656C114.61 21.864 114.65 22.016 114.73 22.112C114.826 22.192 114.978 22.232 115.186 22.232H116.914V23H108.178V22.232ZM106.978 17.24H111.058V9.944L106.978 17.24ZM125.532 23.384C124.956 23.384 124.476 23.16 124.092 22.712C123.724 22.264 123.54 21.656 123.54 20.888C123.54 19.928 123.772 19.024 124.236 18.176C124.716 17.328 125.38 16.408 126.228 15.416C127.476 13.976 128.404 12.744 129.012 11.72C129.412 11.016 129.7 10.272 129.876 9.488L129.78 9.416C129.284 9.832 128.732 10.04 128.124 10.04C127.484 10.04 126.788 9.896 126.036 9.608C125.364 9.384 124.708 9.272 124.068 9.272C123.412 9.272 122.876 9.44 122.46 9.776C122.044 10.096 121.804 10.6 121.74 11.288L121.62 12.728H120.756L121.308 5.912H122.172L122.052 7.496L122.148 7.544C123.076 6.328 124.092 5.72 125.196 5.72C125.692 5.72 126.1 5.856 126.42 6.128C126.756 6.384 127.092 6.752 127.428 7.232C127.748 7.696 128.036 8.056 128.292 8.312C128.548 8.568 128.804 8.696 129.06 8.696C129.572 8.696 129.828 8.456 129.828 7.976C129.828 7.688 129.668 7.448 129.348 7.256C128.948 7.032 128.748 6.736 128.748 6.368C128.748 6.176 128.812 6.024 128.94 5.912C129.068 5.784 129.244 5.72 129.468 5.72C129.884 5.72 130.22 5.96 130.476 6.44C130.748 6.92 130.884 7.416 130.884 7.928C130.884 8.968 130.732 9.92 130.428 10.784C130.124 11.632 129.644 12.592 128.988 13.664C128.38 14.672 127.956 15.792 127.716 17.024C127.492 18.24 127.38 19.536 127.38 20.912C127.38 21.744 127.212 22.368 126.876 22.784C126.556 23.184 126.108 23.384 125.532 23.384Z" fill="white"/>
</svg>
